# xmcd CD database file
#
# Track frame offsets:
#	150
#	20102
#	47212
#	70472
#	95350
#	112467
#	138850
#	161395
#	188442
#	215552
#
# Disc length: 3141 seconds
#
# Revision: 0
# Processed by: cddbd v1.5.1PL0 Copyright (c) Steve Scherf et al.
# Submitted via: CDex 1.51
#
DISCID=910c430a
DTITLE=the ARROWS - 昨日　今日　トゥモロー
DYEAR=2005
DGENRE=ロック (日本)
TTITLE0=オレンジバックビート
TTITLE1=Natural Thanks
TTITLE2=恋する摩天楼
TTITLE3=アレキサンダー
TTITLE4=君なしのメロディ
TTITLE5=BGMの向こう側
TTITLE6=HEY MOTHER
TTITLE7=ベッドタウンに走れ
TTITLE8=うわさの彼女
TTITLE9=さよなら　おやすみ　また明日
EXTD=YEAR: 2005
EXTT0=
EXTT1=
EXTT2=
EXTT3=
EXTT4=
EXTT5=
EXTT6=
EXTT7=
EXTT8=
EXTT9=
PLAYORDER=
